<svg width="1000" height="1000" viewBox="0 0 1000 1000" fill="none" xmlns="http://www.w3.org/2000/svg">
<rect width="1000" height="1000" fill="white"/>
<path d="M70 823.268C70 818.32 72.2885 813.651 76.1989 810.621L291.199 643.996C301.713 635.848 317 643.341 317 656.643V855C317 863.837 309.837 871 301 871H86C77.1634 871 70 863.837 70 855V823.268Z" fill="#43AA8B"/>
<path d="M387.216 562.62L603.216 401.485C608.493 397.549 616 401.315 616 407.897V855C616 859.418 612.418 863 608 863H392C387.582 863 384 859.418 384 855V569.032C384 566.507 385.192 564.13 387.216 562.62Z" stroke="#43AA8B" stroke-width="16"/>
<path d="M694.076 323.42L909.076 155.494C914.328 151.392 922 155.134 922 161.799V855C922 859.418 918.418 863 914 863H699C694.582 863 691 859.418 691 855V329.725C691 327.262 692.135 324.936 694.076 323.42Z" stroke="#43AA8B" stroke-width="16"/>
</svg>
