<svg width="1000" height="1000" viewBox="0 0 1000 1000" fill="none" xmlns="http://www.w3.org/2000/svg">
<rect width="1000" height="1000" fill="white"/>
<path d="M70 823.268C70 818.32 72.2885 813.651 76.1989 810.621L291.199 643.996C301.713 635.848 317 643.341 317 656.643V855C317 863.837 309.837 871 301 871H86C77.1634 871 70 863.837 70 855V823.268Z" fill="#E9190F"/>
<path d="M376 569.032C376 563.981 378.385 559.227 382.433 556.207L598.433 395.073C608.986 387.201 624 394.732 624 407.897V855C624 863.837 616.837 871 608 871H392C383.163 871 376 863.837 376 855V569.032Z" fill="#E9190F"/>
<path d="M683 329.725C683 324.799 685.269 320.148 689.151 317.116L904.151 149.189C914.656 140.984 930 148.469 930 161.799V855C930 863.837 922.837 871 914 871H699C690.163 871 683 863.837 683 855V329.725Z" fill="#E9190F"/>
</svg>
